<svg width="146" height="32" viewBox="0 0 146 32" fill="none" xmlns="http://www.w3.org/2000/svg">
<circle cx="16" cy="16" r="15" fill="#08090A" stroke="#7A3FF2" stroke-width="2"/>
<circle cx="18" cy="18" r="8" fill="#A076F9"/>
<path d="M42.358 23H40.5114L45.8523 8.45455H47.6705L53.0114 23H51.1648L46.8182 10.7557H46.7045L42.358 23ZM43.0398 17.3182H50.483V18.8807H43.0398V17.3182ZM60.169 23.2273C59.2599 23.2273 58.4574 22.9976 57.7614 22.5384C57.0653 22.0743 56.5208 21.4209 56.1278 20.5781C55.7348 19.7306 55.5384 18.7292 55.5384 17.5739C55.5384 16.428 55.7348 15.4337 56.1278 14.5909C56.5208 13.7481 57.0677 13.0971 57.7685 12.6378C58.4692 12.1785 59.2789 11.9489 60.1974 11.9489C60.9077 11.9489 61.4688 12.0672 61.8807 12.304C62.2973 12.536 62.6146 12.8011 62.8324 13.0994C63.0549 13.393 63.2277 13.6345 63.3509 13.8239H63.4929V8.45455H65.169V23H63.5497V21.3239H63.3509C63.2277 21.5227 63.0526 21.7737 62.8253 22.0767C62.598 22.375 62.2737 22.6425 61.8523 22.8793C61.4309 23.1113 60.8698 23.2273 60.169 23.2273ZM60.3963 21.7216C61.0687 21.7216 61.6368 21.5464 62.1009 21.196C62.5649 20.8409 62.9176 20.3509 63.1591 19.7259C63.4006 19.0961 63.5213 18.3693 63.5213 17.5455C63.5213 16.7311 63.4029 16.0185 63.1662 15.4077C62.9295 14.7921 62.5791 14.3139 62.1151 13.973C61.651 13.6274 61.0781 13.4545 60.3963 13.4545C59.6861 13.4545 59.0942 13.6368 58.6207 14.0014C58.152 14.3613 57.7992 14.8513 57.5625 15.4716C57.3305 16.0871 57.2145 16.7784 57.2145 17.5455C57.2145 18.322 57.3329 19.0275 57.5696 19.6619C57.8111 20.2917 58.1662 20.7936 58.6349 21.1676C59.1084 21.5369 59.6955 21.7216 60.3963 21.7216ZM81.4034 13H79.642C79.5379 12.4934 79.3556 12.0483 79.0952 11.6648C78.8395 11.2812 78.527 10.9593 78.1577 10.6989C77.7931 10.4337 77.3883 10.2348 76.9432 10.1023C76.4981 9.9697 76.0341 9.90341 75.5511 9.90341C74.6705 9.90341 73.8726 10.1259 73.1577 10.571C72.4474 11.0161 71.8816 11.6719 71.4602 12.5384C71.0436 13.4048 70.8352 14.4678 70.8352 15.7273C70.8352 16.9867 71.0436 18.0497 71.4602 18.9162C71.8816 19.7827 72.4474 20.4384 73.1577 20.8835C73.8726 21.3286 74.6705 21.5511 75.5511 21.5511C76.0341 21.5511 76.4981 21.4848 76.9432 21.3523C77.3883 21.2197 77.7931 21.0232 78.1577 20.7628C78.527 20.4976 78.8395 20.1733 79.0952 19.7898C79.3556 19.4015 79.5379 18.9564 79.642 18.4545H81.4034C81.2708 19.1979 81.0294 19.8632 80.679 20.4503C80.3286 21.0374 79.893 21.5369 79.3722 21.9489C78.8513 22.3561 78.2666 22.6662 77.6179 22.8793C76.974 23.0923 76.285 23.1989 75.5511 23.1989C74.3106 23.1989 73.2074 22.8958 72.2415 22.2898C71.2756 21.6837 70.5156 20.822 69.9616 19.7045C69.4077 18.5871 69.1307 17.2614 69.1307 15.7273C69.1307 14.1932 69.4077 12.8674 69.9616 11.75C70.5156 10.6326 71.2756 9.77083 72.2415 9.16477C73.2074 8.55871 74.3106 8.25568 75.5511 8.25568C76.285 8.25568 76.974 8.36222 77.6179 8.57528C78.2666 8.78835 78.8513 9.10085 79.3722 9.51278C79.893 9.91998 80.3286 10.4171 80.679 11.0043C81.0294 11.5866 81.2708 12.2519 81.4034 13ZM86.6985 8.45455V23H85.0224V8.45455H86.6985ZM93.9787 23.2557C93.2874 23.2557 92.66 23.1255 92.0966 22.8651C91.5331 22.5999 91.0857 22.2188 90.7543 21.7216C90.4228 21.2197 90.2571 20.6136 90.2571 19.9034C90.2571 19.2784 90.3802 18.7718 90.6264 18.3835C90.8726 17.9905 91.2017 17.6828 91.6136 17.4602C92.0256 17.2377 92.4801 17.072 92.9773 16.9631C93.4792 16.8494 93.9834 16.7595 94.4901 16.6932C95.1529 16.608 95.6903 16.544 96.1023 16.5014C96.5189 16.4541 96.822 16.3759 97.0114 16.267C97.2055 16.1581 97.3026 15.9687 97.3026 15.6989V15.642C97.3026 14.9413 97.1108 14.3968 96.7273 14.0085C96.3485 13.6203 95.7732 13.4261 95.0014 13.4261C94.2012 13.4261 93.5739 13.6013 93.1193 13.9517C92.6648 14.3021 92.3452 14.6761 92.1605 15.0739L90.5696 14.5057C90.8537 13.8428 91.2325 13.3267 91.706 12.9574C92.1842 12.5833 92.705 12.3229 93.2685 12.1761C93.8366 12.0246 94.3954 11.9489 94.9446 11.9489C95.295 11.9489 95.6974 11.9915 96.152 12.0767C96.6113 12.1572 97.054 12.3253 97.4801 12.581C97.911 12.8366 98.2685 13.2225 98.5526 13.7386C98.8366 14.2547 98.9787 14.946 98.9787 15.8125V23H97.3026V21.5227H97.2173C97.1037 21.7595 96.9143 22.0128 96.6491 22.2827C96.384 22.5526 96.0313 22.7822 95.5909 22.9716C95.1506 23.161 94.6132 23.2557 93.9787 23.2557ZM94.2344 21.75C94.8973 21.75 95.456 21.6198 95.9105 21.3594C96.3698 21.099 96.7154 20.7628 96.9474 20.3509C97.1842 19.9389 97.3026 19.5057 97.3026 19.0511V17.517C97.2315 17.6023 97.0753 17.6804 96.8338 17.7514C96.5971 17.8177 96.3224 17.8769 96.0099 17.929C95.7022 17.9763 95.4015 18.0189 95.108 18.0568C94.8191 18.09 94.5848 18.1184 94.4048 18.142C93.9692 18.1989 93.562 18.2912 93.1832 18.419C92.8092 18.5421 92.5062 18.7292 92.2741 18.9801C92.0469 19.2263 91.9332 19.5625 91.9332 19.9886C91.9332 20.571 92.1487 21.0114 92.5795 21.3097C93.0152 21.6032 93.5668 21.75 94.2344 21.75ZM103.038 23V12.0909H104.657V13.7386H104.771C104.97 13.1989 105.33 12.7609 105.85 12.4247C106.371 12.0885 106.958 11.9205 107.612 11.9205C107.735 11.9205 107.889 11.9228 108.074 11.9276C108.258 11.9323 108.398 11.9394 108.493 11.9489V13.6534C108.436 13.6392 108.306 13.6179 108.102 13.5895C107.903 13.5563 107.692 13.5398 107.47 13.5398C106.94 13.5398 106.466 13.651 106.049 13.8736C105.637 14.0914 105.311 14.3944 105.069 14.7827C104.833 15.1662 104.714 15.6042 104.714 16.0966V23H103.038ZM111.479 23V12.0909H113.156V23H111.479ZM112.332 10.2727C112.005 10.2727 111.723 10.1615 111.487 9.93892C111.254 9.71638 111.138 9.44886 111.138 9.13636C111.138 8.82386 111.254 8.55634 111.487 8.33381C111.723 8.11127 112.005 8 112.332 8C112.658 8 112.938 8.11127 113.17 8.33381C113.406 8.55634 113.525 8.82386 113.525 9.13636C113.525 9.44886 113.406 9.71638 113.17 9.93892C112.938 10.1615 112.658 10.2727 112.332 10.2727ZM121.97 12.0909V13.5114H116.316V12.0909H121.97ZM117.964 9.47727H119.64V19.875C119.64 20.3485 119.709 20.7036 119.846 20.9403C119.988 21.1723 120.168 21.3286 120.386 21.4091C120.609 21.4848 120.843 21.5227 121.089 21.5227C121.274 21.5227 121.425 21.5133 121.544 21.4943C121.662 21.4706 121.757 21.4517 121.828 21.4375L122.169 22.9432C122.055 22.9858 121.896 23.0284 121.693 23.071C121.489 23.1184 121.231 23.142 120.919 23.142C120.445 23.142 119.981 23.0402 119.527 22.8366C119.077 22.633 118.703 22.3229 118.404 21.9062C118.111 21.4896 117.964 20.964 117.964 20.3295V9.47727ZM126.571 27.0909C126.287 27.0909 126.033 27.0672 125.811 27.0199C125.588 26.9773 125.434 26.9347 125.349 26.892L125.775 25.4148C126.182 25.5189 126.542 25.5568 126.855 25.5284C127.167 25.5 127.444 25.3603 127.686 25.1094C127.932 24.8632 128.157 24.4631 128.36 23.9091L128.673 23.0568L124.639 12.0909H126.457L129.468 20.7841H129.582L132.593 12.0909H134.412L129.781 24.5909C129.573 25.1544 129.315 25.6207 129.007 25.9901C128.699 26.3641 128.342 26.6411 127.934 26.821C127.532 27.0009 127.077 27.0909 126.571 27.0909Z" fill="white"/>
</svg>
